<svg width="36" height="54" viewBox="0 0 36 54" fill="none" xmlns="http://www.w3.org/2000/svg">
<path d="M22.9501 17.8146V27.8708L20.5602 27.3991V17.8146C20.5602 17.7944 20.5602 17.7742 20.5602 17.7541C20.5602 17.7339 20.5582 17.7138 20.5541 17.6936C20.5541 17.6735 20.5541 17.6533 20.5541 17.6331C20.5501 17.613 20.5481 17.5928 20.5481 17.5727C20.544 17.5525 20.542 17.5324 20.542 17.5122C20.5379 17.4961 20.5339 17.4779 20.5298 17.4578C20.5258 17.4376 20.5237 17.4175 20.5237 17.3973C20.5197 17.3772 20.5156 17.357 20.5116 17.3368C20.5075 17.3167 20.5035 17.2985 20.4994 17.2824C20.4954 17.2623 20.4893 17.2421 20.4812 17.2219C20.4812 17.2038 20.4751 17.1857 20.469 17.1675C20.4649 17.1474 20.4589 17.1292 20.4508 17.1131C20.4467 17.0929 20.4406 17.0728 20.4325 17.0526C20.4285 17.0365 20.4224 17.0184 20.4143 16.9982C20.4062 16.9821 20.3981 16.9639 20.3899 16.9438C20.3859 16.9277 20.3798 16.9095 20.3717 16.8894C20.3636 16.8732 20.3555 16.8571 20.3474 16.841C20.3393 16.8208 20.3312 16.8027 20.3231 16.7866C20.3149 16.7704 20.3068 16.7543 20.2987 16.7382C20.2906 16.718 20.2805 16.6999 20.2683 16.6838C20.2602 16.6676 20.2521 16.6515 20.244 16.6354C20.2318 16.6193 20.2217 16.6031 20.2136 16.587C20.2014 16.5709 20.1913 16.5548 20.1832 16.5386C20.171 16.5225 20.1609 16.5064 20.1528 16.4903C20.1406 16.4741 20.1285 16.458 20.1163 16.4419C20.1082 16.4258 20.0981 16.4096 20.0859 16.3935C20.0737 16.3814 20.0616 16.3673 20.0494 16.3512C20.0372 16.3351 20.0251 16.3209 20.0129 16.3088C20.0008 16.2927 19.9886 16.2766 19.9764 16.2605C19.9643 16.2484 19.9521 16.2343 19.9399 16.2181C19.9237 16.206 19.9095 16.1919 19.8974 16.1758C19.8852 16.1637 19.8731 16.1496 19.8609 16.1335C19.8447 16.1214 19.8305 16.1093 19.8183 16.0972C19.8062 16.0851 19.792 16.073 19.7758 16.0609C19.7636 16.0448 19.7494 16.0307 19.7332 16.0186C19.717 16.0065 19.7028 15.9944 19.6906 15.9823C19.6744 15.9702 19.6582 15.9581 19.642 15.946C19.6298 15.9339 19.6156 15.9218 19.5994 15.9097C19.5832 15.9017 19.567 15.8916 19.5508 15.8795C19.5345 15.8674 19.5204 15.8573 19.5082 15.8493C19.492 15.8372 19.4758 15.8251 19.4595 15.813C19.4433 15.8049 19.4271 15.7949 19.4109 15.7828C19.3947 15.7747 19.3785 15.7646 19.3622 15.7525C19.342 15.7445 19.3237 15.7364 19.3075 15.7283C19.2913 15.7203 19.2751 15.7102 19.2589 15.6981C19.2427 15.69 19.2244 15.682 19.2041 15.6739C19.1879 15.6658 19.1717 15.6578 19.1555 15.6497C19.1352 15.6417 19.117 15.6336 19.1008 15.6255C19.0805 15.6175 19.0622 15.6114 19.046 15.6074C19.0298 15.5993 19.0116 15.5913 18.9913 15.5832C18.971 15.5792 18.9528 15.5731 18.9366 15.5651C18.9163 15.561 18.8981 15.555 18.8818 15.5469C18.8616 15.5429 18.8413 15.5368 18.821 15.5288C18.8048 15.5247 18.7866 15.5207 18.7663 15.5167C18.746 15.5127 18.7278 15.5086 18.7116 15.5046C18.6913 15.4965 18.671 15.4905 18.6508 15.4865C18.6305 15.4824 18.6102 15.4804 18.59 15.4804C18.5737 15.4764 18.5555 15.4723 18.5352 15.4683C18.5149 15.4643 18.4947 15.4623 18.4744 15.4623C18.4541 15.4582 18.4339 15.4542 18.4136 15.4502C18.3933 15.4502 18.3731 15.4502 18.3528 15.4502C18.3325 15.4461 18.3122 15.4441 18.292 15.4441C18.2717 15.4441 18.2514 15.4441 18.2312 15.4441C18.2109 15.4401 18.1906 15.4381 18.1704 15.4381C18.1501 15.4381 18.1298 15.4401 18.1095 15.4441C18.0893 15.4441 18.069 15.4441 18.0487 15.4441C18.0285 15.4441 18.0082 15.4461 17.9879 15.4502C17.9677 15.4502 17.9474 15.4502 17.9271 15.4502C17.9068 15.4542 17.8866 15.4582 17.8663 15.4623C17.846 15.4623 17.8258 15.4643 17.8055 15.4683C17.7852 15.4723 17.7649 15.4764 17.7447 15.4804C17.7244 15.4804 17.7062 15.4824 17.6899 15.4865C17.6697 15.4905 17.6494 15.4965 17.6291 15.5046C17.6089 15.5086 17.5906 15.5127 17.5744 15.5167C17.5541 15.5207 17.5339 15.5247 17.5136 15.5288C17.4974 15.5368 17.4791 15.5429 17.4589 15.5469C17.4386 15.555 17.4204 15.561 17.4041 15.5651C17.3839 15.5731 17.3656 15.5792 17.3494 15.5832C17.3291 15.5913 17.3109 15.5993 17.2947 15.6074C17.2744 15.6114 17.2562 15.6175 17.2399 15.6255C17.2197 15.6336 17.2014 15.6417 17.1852 15.6497C17.169 15.6578 17.1528 15.6658 17.1366 15.6739C17.1163 15.682 17.0981 15.69 17.0818 15.6981C17.0656 15.7102 17.0474 15.7203 17.0271 15.7283C17.0109 15.7364 16.9947 15.7445 16.9785 15.7525C16.9622 15.7646 16.946 15.7747 16.9298 15.7828C16.9136 15.7949 16.8974 15.8049 16.8812 15.813C16.8649 15.8251 16.8487 15.8372 16.8325 15.8493C16.8163 15.8573 16.8001 15.8674 16.7839 15.8795C16.7717 15.8916 16.7575 15.9017 16.7413 15.9097C16.7251 15.9218 16.7089 15.9339 16.6927 15.946C16.6764 15.9581 16.6622 15.9702 16.6501 15.9823C16.6339 15.9944 16.6197 16.0065 16.6075 16.0186C16.5913 16.0307 16.5771 16.0448 16.5649 16.0609C16.5487 16.073 16.5345 16.0851 16.5224 16.0972C16.5062 16.1093 16.492 16.1214 16.4798 16.1335C16.4677 16.1496 16.4535 16.1637 16.4372 16.1758C16.4251 16.1919 16.4129 16.206 16.4008 16.2181C16.3886 16.2343 16.3764 16.2484 16.3643 16.2605C16.3521 16.2766 16.3399 16.2927 16.3278 16.3088C16.3156 16.3209 16.3035 16.3351 16.2913 16.3512C16.2791 16.3673 16.267 16.3814 16.2548 16.3935C16.2427 16.4096 16.2305 16.4258 16.2183 16.4419C16.2102 16.458 16.2001 16.4741 16.1879 16.4903C16.1758 16.5064 16.1656 16.5225 16.1575 16.5386C16.1454 16.5548 16.1352 16.5709 16.1271 16.587C16.115 16.6031 16.1048 16.6193 16.0967 16.6354C16.0886 16.6515 16.0785 16.6676 16.0663 16.6838C16.0582 16.6999 16.0501 16.718 16.042 16.7382C16.0339 16.7543 16.0258 16.7704 16.0177 16.7866C16.0055 16.8027 15.9974 16.8208 15.9933 16.841C15.9852 16.8571 15.9771 16.8732 15.969 16.8894C15.9609 16.9095 15.9528 16.9277 15.9447 16.9438C15.9366 16.9639 15.9305 16.9821 15.9264 16.9982C15.9183 17.0184 15.9102 17.0365 15.9021 17.0526C15.8981 17.0728 15.894 17.0929 15.8899 17.1131C15.8818 17.1292 15.8758 17.1474 15.8717 17.1675C15.8636 17.1877 15.8575 17.2058 15.8535 17.2219C15.8494 17.2421 15.8454 17.2623 15.8413 17.2824C15.8372 17.2985 15.8332 17.3167 15.8291 17.3368C15.8251 17.357 15.821 17.3772 15.817 17.3973C15.8129 17.4175 15.8089 17.4376 15.8048 17.4578L15.7987 17.5122C15.7947 17.5324 15.7927 17.5525 15.7927 17.5727C15.7886 17.5928 15.7866 17.613 15.7866 17.6331C15.7866 17.6533 15.7845 17.6735 15.7805 17.6936C15.7805 17.7138 15.7805 17.7339 15.7805 17.7541C15.7805 17.7742 15.7805 17.7944 15.7805 17.8146V26.4558L13.3906 25.9841V17.8146C13.3906 16.7745 13.7251 15.813 14.2967 15.0329C14.4001 14.8878 14.5156 14.7487 14.6372 14.6157C15.5068 13.6663 16.7717 13.0616 18.1704 13.0616C19.7636 13.0616 21.1744 13.8417 22.044 15.0329C22.3055 15.3897 22.5122 15.7828 22.6704 16.206C22.8467 16.708 22.9501 17.2522 22.9501 17.8146Z" fill="#051A6F"/>
<path d="M32.5094 17.8146V29.7635L30.4236 29.3523L30.1196 29.2918V17.742V17.7057V17.6634V17.6271V17.5908L30.1135 17.5485V17.4759V17.4396V17.3973L30.1074 17.361V17.3247V17.2885V17.2461L30.1013 17.2099V17.1736V17.1373L30.0952 17.095V17.0587L30.0892 17.0224V16.9861L30.0831 16.9075V16.8712L30.077 16.8349V16.7987L30.0709 16.7624V16.7261L30.0648 16.6838V16.6475L30.0527 16.5749L30.0466 16.5024L30.0405 16.4661V16.4237L30.0344 16.3875L30.0284 16.3512L30.0162 16.2786V16.2423L30.0101 16.206L30.004 16.1698L29.9979 16.1335L29.9919 16.0972L29.9858 16.0609V16.0246L29.9797 15.9823L29.9736 15.946L29.9675 15.9097L29.9615 15.8735L29.9554 15.8372L29.9493 15.8009L29.9432 15.7646L29.9371 15.7283L29.9311 15.692L29.9189 15.6558L29.9128 15.6195L29.9067 15.5832L29.9006 15.5469L29.8946 15.5106L29.8885 15.4744L29.8824 15.4381C29.854 15.301 29.8216 15.166 29.7851 15.0329C28.5263 9.81433 23.8013 5.93214 18.1702 5.93214C13.2385 5.93214 9.00605 8.90728 7.18173 13.1462C6.92024 13.751 6.70741 14.3798 6.5493 15.0329C6.51687 15.166 6.48646 15.301 6.45808 15.4381L6.452 15.4744L6.44592 15.5106L6.43984 15.5469L6.43376 15.5832L6.4216 15.6195L6.41551 15.6558L6.40943 15.692L6.40335 15.7283L6.39727 15.7646L6.39119 15.8009L6.38511 15.8372L6.37903 15.8735L6.37295 15.9097L6.36687 15.946L6.36078 15.9823L6.3547 16.0246L6.34862 16.0609L6.34254 16.0972L6.33646 16.1335V16.1698L6.3243 16.2423L6.31822 16.2786L6.31214 16.3149V16.3512L6.30605 16.3875L6.29997 16.4237L6.29389 16.4661V16.5024L6.28173 16.5749V16.6112L6.27565 16.6475V16.6838L6.26957 16.7261V16.7624L6.26349 16.7987L6.25741 16.8349V16.8712V16.9075L6.25133 16.9498V16.9861L6.24524 17.0224V17.0587L6.23916 17.095V17.1373V17.1736L6.23308 17.2099V17.2461V17.2885L6.227 17.3247V17.361V17.3973V17.4396L6.22092 17.5485V17.5908V17.6271V17.6634V17.7057V17.742V24.563L3.83105 24.0914V17.8146C3.83105 17.0103 3.89795 16.2121 4.02565 15.4381C4.04997 15.305 4.07632 15.17 4.1047 15.0329C5.40605 8.49004 11.2074 3.55566 18.1702 3.55566C25.127 3.55566 30.9344 8.49004 32.2358 15.0329C32.2642 15.17 32.2885 15.305 32.3088 15.4381C32.4425 16.2121 32.5094 17.0103 32.5094 17.8146Z" fill="#051A6F"/>
<path d="M27.7298 17.742V28.8202L25.3399 28.3485V17.8146C25.3399 17.4457 25.3095 17.0768 25.2548 16.72C25.1879 16.2786 25.0784 15.8493 24.9325 15.4381C24.8838 15.301 24.8311 15.166 24.7744 15.0329C23.6798 12.4811 21.1318 10.6851 18.1703 10.6851C15.5798 10.6851 13.3054 12.0578 12.0467 14.1077C11.8642 14.402 11.7041 14.7104 11.5662 15.0329C11.5095 15.166 11.4568 15.301 11.4081 15.4381C11.1406 16.1819 11.0007 16.9861 11.0007 17.8146V25.5124L8.61084 25.0347V17.742V17.6997V17.6634V17.6271V17.5848V17.5485L8.61692 17.5122V17.4699V17.4336V17.3973L8.623 17.361V17.3187V17.2824L8.62908 17.2461V17.2099V17.1675L8.63516 17.095L8.64125 17.0526V17.0164L8.64733 16.9801V16.9438L8.65341 16.9075V16.8652L8.65949 16.8289L8.66557 16.7926V16.7563L8.67165 16.72L8.67773 16.6777L8.68381 16.6414V16.6052L8.68989 16.5689L8.69597 16.5326L8.70206 16.4963L8.70814 16.46L8.71422 16.4237L8.7203 16.3814V16.3451L8.72638 16.3088L8.73246 16.2726L8.73854 16.2363L8.74462 16.2L8.75679 16.1637L8.76287 16.1274L8.76895 16.0912L8.77503 16.0549L8.78111 16.0186L8.78719 15.9823L8.79327 15.946L8.80543 15.9097L8.81151 15.8735L8.8176 15.8372L8.82368 15.8009L8.83584 15.7646L8.84192 15.7283L8.848 15.6921L8.86016 15.6558L8.86625 15.6195L8.87841 15.5832L8.88449 15.5469L8.89057 15.5106L8.90273 15.4744L8.90881 15.4381C8.9453 15.301 8.98381 15.166 9.02435 15.0329C9.17638 14.5431 9.36489 14.0714 9.58989 13.6179C11.1467 10.4735 14.4061 8.30862 18.1703 8.30862C22.4757 8.30862 26.1122 11.1447 27.3102 15.0329C27.3507 15.166 27.3892 15.301 27.4257 15.4381L27.4379 15.4744L27.4439 15.5106L27.4561 15.5469L27.4622 15.5832L27.4744 15.6195L27.4804 15.6558L27.4865 15.6921L27.4987 15.7283L27.5048 15.7646L27.5108 15.8009L27.523 15.8372L27.5291 15.8735L27.5352 15.9097L27.5412 15.946L27.5534 15.9823L27.5595 16.0186L27.5656 16.0549L27.5716 16.0912L27.5777 16.1274L27.5899 16.2L27.596 16.2363L27.6021 16.2726L27.6081 16.3088L27.6142 16.3451L27.6203 16.3814L27.6264 16.4237L27.6325 16.46L27.6385 16.4963L27.6446 16.5326V16.5689L27.6507 16.6052L27.6568 16.6414L27.6629 16.6777V16.72L27.6689 16.7563L27.675 16.7926L27.6811 16.8289V16.8652L27.6872 16.9075V16.9438L27.6933 17.0164L27.6994 17.0526V17.095L27.7054 17.1675L27.7115 17.2038V17.2099V17.2461V17.2824L27.7176 17.3187V17.361V17.3973L27.7237 17.4336V17.4699V17.5122V17.5485V17.5848L27.7298 17.6271V17.6634V17.6997V17.742Z" fill="#051A6F"/>
<path d="M30.4236 29.189L30.1196 29.1286L27.7297 28.6569L25.3398 28.1852L22.95 27.7136L20.5601 27.2419V35.8771C20.5601 35.8972 20.5601 35.9174 20.5601 35.9375C20.5601 35.9577 20.5581 35.9778 20.554 35.998C20.554 36.0181 20.554 36.0383 20.554 36.0585C20.55 36.0786 20.5479 36.0988 20.5479 36.1189C20.5439 36.1391 20.5419 36.1592 20.5419 36.1794L20.5297 36.2399C20.5256 36.26 20.5236 36.2802 20.5236 36.3003C20.5196 36.3205 20.5155 36.3386 20.5115 36.3548C20.5074 36.3749 20.5034 36.3951 20.4993 36.4152C20.4952 36.4354 20.4892 36.4535 20.4811 36.4697C20.4811 36.4878 20.475 36.512 20.4689 36.5301C20.4648 36.5463 20.4588 36.5644 20.4506 36.5846C20.4466 36.6047 20.4405 36.6229 20.4324 36.639C20.4284 36.6591 20.4223 36.6773 20.4142 36.6934C20.4061 36.7136 20.4 36.7317 20.3959 36.7478C20.3878 36.768 20.3797 36.7861 20.3716 36.8022C20.3635 36.8224 20.3554 36.8405 20.3473 36.8567C20.3392 36.8728 20.3311 36.8909 20.3229 36.9111C20.3148 36.9272 20.3067 36.9433 20.2986 36.9595C20.2905 36.9756 20.2804 36.9937 20.2682 37.0139C20.2601 37.03 20.252 37.0461 20.2439 37.0623C20.2317 37.0784 20.2216 37.0945 20.2135 37.1106C20.2013 37.1268 20.1912 37.1429 20.1831 37.159C20.1709 37.1751 20.1608 37.1913 20.1527 37.2074C20.1405 37.2235 20.1284 37.2396 20.1162 37.2558C20.1081 37.2719 20.0979 37.286 20.0858 37.2981C20.0736 37.3142 20.0615 37.3304 20.0493 37.3465C20.0371 37.3586 20.025 37.3727 20.0128 37.3888C20.0006 37.4049 19.9885 37.419 19.9763 37.4311C19.9642 37.4473 19.952 37.4614 19.9398 37.4735C19.9277 37.4896 19.9135 37.5037 19.8973 37.5158C19.8851 37.5319 19.8729 37.546 19.8608 37.5581C19.8446 37.5702 19.8304 37.5843 19.8182 37.6005C19.8061 37.6125 19.7919 37.6246 19.7756 37.6367C19.7635 37.6488 19.7493 37.6609 19.7331 37.673C19.7169 37.6851 19.7027 37.6972 19.6905 37.7093C19.6743 37.7214 19.6601 37.7335 19.6479 37.7456C19.6317 37.7577 19.6155 37.7698 19.5993 37.7819C19.5831 37.794 19.5669 37.8061 19.5506 37.8181C19.5385 37.8262 19.5243 37.8363 19.5081 37.8484C19.4919 37.8605 19.4756 37.8706 19.4594 37.8786C19.4432 37.8907 19.427 37.9008 19.4108 37.9089C19.3946 37.9209 19.3784 37.931 19.3621 37.9391C19.3419 37.9472 19.3236 37.9572 19.3074 37.9693C19.2912 37.9774 19.275 37.9854 19.2588 37.9935C19.2425 38.0016 19.2243 38.0096 19.204 38.0177C19.1878 38.0258 19.1716 38.0358 19.1554 38.0479C19.1351 38.052 19.1169 38.058 19.1006 38.0661C19.0804 38.0741 19.0621 38.0822 19.0459 38.0903C19.0297 38.0983 19.0115 38.1044 18.9912 38.1084C18.9709 38.1165 18.9527 38.1245 18.9365 38.1326C18.9162 38.1366 18.8979 38.1427 18.8817 38.1507C18.8615 38.1548 18.8412 38.1588 18.8209 38.1628C18.8047 38.1709 18.7865 38.1769 18.7662 38.181C18.7459 38.185 18.7277 38.189 18.7115 38.1931C18.6912 38.1971 18.6709 38.2011 18.6506 38.2052C18.6304 38.2092 18.6101 38.2132 18.5898 38.2173C18.5736 38.2213 18.5554 38.2253 18.5351 38.2293C18.5148 38.2293 18.4946 38.2314 18.4743 38.2354C18.454 38.2394 18.4338 38.2414 18.4135 38.2414C18.3932 38.2455 18.3729 38.2475 18.3527 38.2475C18.3324 38.2475 18.3121 38.2495 18.2919 38.2535C18.2716 38.2535 18.2513 38.2535 18.2311 38.2535C18.2108 38.2535 18.1905 38.2535 18.1702 38.2535C18.15 38.2535 18.1297 38.2535 18.1094 38.2535C18.0892 38.2535 18.0689 38.2535 18.0486 38.2535C18.0284 38.2495 18.0081 38.2475 17.9878 38.2475C17.9675 38.2475 17.9473 38.2455 17.927 38.2414C17.9067 38.2414 17.8865 38.2394 17.8662 38.2354C17.8459 38.2314 17.8256 38.2293 17.8054 38.2293C17.7851 38.2253 17.7648 38.2213 17.7446 38.2173C17.7243 38.2132 17.7061 38.2092 17.6898 38.2052C17.6696 38.2011 17.6493 38.1971 17.629 38.1931C17.6088 38.189 17.5905 38.185 17.5743 38.181C17.554 38.1769 17.5338 38.1709 17.5135 38.1628C17.4973 38.1588 17.479 38.1548 17.4588 38.1507C17.4385 38.1427 17.4202 38.1366 17.404 38.1326C17.3838 38.1245 17.3655 38.1165 17.3493 38.1084C17.329 38.1044 17.3108 38.0983 17.2946 38.0903C17.2743 38.0822 17.2561 38.0741 17.2398 38.0661C17.2196 38.058 17.2013 38.052 17.1851 38.0479C17.1689 38.0358 17.1527 38.0258 17.1365 38.0177C17.1162 38.0096 17.0979 38.0016 17.0817 37.9935C17.0655 37.9854 17.0473 37.9774 17.027 37.9693C17.0108 37.9572 16.9946 37.9472 16.9784 37.9391C16.9621 37.931 16.9459 37.9209 16.9297 37.9089C16.9135 37.9008 16.8973 37.8907 16.8811 37.8786C16.8648 37.8706 16.8486 37.8605 16.8324 37.8484C16.8162 37.8363 16.8 37.8262 16.7838 37.8181C16.7716 37.8061 16.7574 37.794 16.7412 37.7819C16.725 37.7698 16.7088 37.7577 16.6925 37.7456C16.6763 37.7335 16.6621 37.7214 16.65 37.7093C16.6338 37.6972 16.6196 37.6851 16.6074 37.673C16.5912 37.6609 16.577 37.6488 16.5648 37.6367C16.5486 37.6246 16.5344 37.6125 16.5223 37.6005C16.5061 37.5843 16.4919 37.5702 16.4797 37.5581C16.4675 37.546 16.4534 37.5319 16.4371 37.5158C16.425 37.5037 16.4128 37.4896 16.4006 37.4735C16.3885 37.4614 16.3763 37.4473 16.3642 37.4311C16.352 37.419 16.3398 37.4049 16.3277 37.3888C16.3155 37.3727 16.3034 37.3586 16.2912 37.3465C16.279 37.3304 16.2669 37.3142 16.2547 37.2981C16.2425 37.286 16.2304 37.2719 16.2182 37.2558C16.2101 37.2396 16.2 37.2235 16.1878 37.2074C16.1756 37.1913 16.1655 37.1751 16.1574 37.159C16.1452 37.1429 16.1351 37.1268 16.127 37.1106C16.1148 37.0945 16.1047 37.0784 16.0966 37.0623C16.0885 37.0461 16.0784 37.03 16.0662 37.0139C16.0581 36.9937 16.05 36.9756 16.0419 36.9595C16.0338 36.9433 16.0256 36.9272 16.0175 36.9111C16.0054 36.8909 15.9973 36.8728 15.9932 36.8567C15.9851 36.8405 15.977 36.8224 15.9689 36.8022C15.9608 36.7861 15.9527 36.768 15.9446 36.7478C15.9365 36.7317 15.9304 36.7136 15.9263 36.6934C15.9182 36.6773 15.9101 36.6591 15.902 36.639C15.8979 36.6229 15.8939 36.6047 15.8898 36.5846C15.8817 36.5644 15.8756 36.5463 15.8716 36.5301C15.8635 36.51 15.8574 36.4898 15.8534 36.4697C15.8493 36.4535 15.8452 36.4354 15.8412 36.4152C15.8371 36.3951 15.8331 36.3749 15.829 36.3548C15.825 36.3386 15.8209 36.3205 15.8169 36.3003C15.8128 36.2802 15.8088 36.26 15.8047 36.2399C15.8047 36.2197 15.8027 36.1996 15.7986 36.1794C15.7946 36.1592 15.7925 36.1391 15.7925 36.1189C15.7885 36.0988 15.7865 36.0786 15.7865 36.0585C15.7865 36.0383 15.7844 36.0181 15.7804 35.998C15.7804 35.9778 15.7804 35.9577 15.7804 35.9375C15.7804 35.9174 15.7804 35.8972 15.7804 35.8771V26.2925L13.3905 25.8208L11.0006 25.3492L8.61078 24.8775L6.22092 24.3998L3.83105 23.9281V35.8771C3.83105 36.6874 3.89795 37.4795 4.02565 38.2535C5.16889 44.996 11.0675 50.136 18.1702 50.136C25.2729 50.136 31.1716 44.996 32.3088 38.2535C32.4425 37.4795 32.5094 36.6874 32.5094 35.8771V29.6002L30.4236 29.189Z" fill="#2B8F1C"/>
</svg>
