<svg width="38" height="38" viewBox="0 0 38 38" fill="none" xmlns="http://www.w3.org/2000/svg">
<path d="M11.0835 23.75H14.2502C14.2502 25.46 16.4193 26.9167 19.0002 26.9167C21.581 26.9167 23.7502 25.46 23.7502 23.75C23.7502 22.0083 22.1035 21.375 18.6202 20.5358C15.2635 19.6967 11.0835 18.6517 11.0835 14.25C11.0835 11.4158 13.411 9.00917 16.6252 8.20167V4.75H21.3752V8.20167C24.5893 9.00917 26.9168 11.4158 26.9168 14.25H23.7502C23.7502 12.54 21.581 11.0833 19.0002 11.0833C16.4193 11.0833 14.2502 12.54 14.2502 14.25C14.2502 15.9917 15.8968 16.625 19.3802 17.4642C22.7368 18.3033 26.9168 19.3483 26.9168 23.75C26.9168 26.5842 24.5893 28.9908 21.3752 29.7983V33.25H16.6252V29.7983C13.411 28.9908 11.0835 26.5842 11.0835 23.75Z" fill="#2B8F1C"/>
</svg>
