<svg width="218" height="63" viewBox="0 0 218 63" fill="none" xmlns="http://www.w3.org/2000/svg">
<path d="M27.0487 20.7839V32.5161L24.2605 31.9659V20.7839C24.2605 20.7604 24.2605 20.7369 24.2605 20.7133C24.2605 20.6898 24.2582 20.6663 24.2534 20.6428C24.2534 20.6193 24.2534 20.5958 24.2534 20.5723C24.2487 20.5487 24.2463 20.5252 24.2463 20.5017C24.2416 20.4782 24.2392 20.4547 24.2392 20.4312C24.2345 20.4123 24.2298 20.3912 24.225 20.3677C24.2203 20.3441 24.218 20.3206 24.218 20.2971C24.2132 20.2736 24.2085 20.2501 24.2038 20.2266C24.199 20.203 24.1943 20.1819 24.1896 20.1631C24.1848 20.1396 24.1778 20.116 24.1683 20.0925C24.1683 20.0714 24.1612 20.0502 24.1541 20.029C24.1494 20.0055 24.1423 19.9843 24.1328 19.9655C24.1281 19.942 24.121 19.9185 24.1115 19.895C24.1068 19.8762 24.0997 19.855 24.0903 19.8315C24.0808 19.8127 24.0713 19.7915 24.0619 19.768C24.0571 19.7492 24.05 19.728 24.0406 19.7045C24.0311 19.6857 24.0217 19.6669 24.0122 19.6481C24.0028 19.6245 23.9933 19.6034 23.9838 19.5846C23.9744 19.5658 23.9649 19.5469 23.9555 19.5281C23.946 19.5046 23.9342 19.4834 23.92 19.4646C23.9105 19.4458 23.9011 19.427 23.8916 19.4082C23.8774 19.3894 23.8656 19.3706 23.8561 19.3518C23.8419 19.3329 23.8301 19.3141 23.8207 19.2953C23.8065 19.2765 23.7946 19.2577 23.7852 19.2389C23.771 19.2201 23.7568 19.2013 23.7426 19.1824C23.7332 19.1636 23.7213 19.1448 23.7071 19.126C23.693 19.1119 23.6788 19.0954 23.6646 19.0766C23.6504 19.0578 23.6362 19.0413 23.622 19.0272C23.6078 19.0084 23.5936 18.9896 23.5794 18.9708C23.5653 18.9567 23.5511 18.9402 23.5369 18.9214C23.518 18.9073 23.5014 18.8908 23.4872 18.872C23.473 18.8579 23.4588 18.8415 23.4446 18.8226C23.4257 18.8085 23.4092 18.7944 23.395 18.7803C23.3808 18.7662 23.3642 18.7521 23.3453 18.738C23.3311 18.7192 23.3146 18.7027 23.2957 18.6886C23.2767 18.6745 23.2602 18.6604 23.246 18.6463C23.2271 18.6322 23.2082 18.6181 23.1892 18.6039C23.175 18.5898 23.1585 18.5757 23.1396 18.5616C23.1207 18.5522 23.1017 18.5404 23.0828 18.5263C23.0639 18.5122 23.0473 18.5005 23.0332 18.4911C23.0142 18.477 22.9953 18.4628 22.9764 18.4487C22.9575 18.4393 22.9386 18.4276 22.9196 18.4135C22.9007 18.4041 22.8818 18.3923 22.8629 18.3782C22.8392 18.3688 22.818 18.3594 22.799 18.35C22.7801 18.3406 22.7612 18.3288 22.7423 18.3147C22.7234 18.3053 22.7021 18.2959 22.6784 18.2865C22.6595 18.2771 22.6406 18.2677 22.6217 18.2583C22.598 18.2488 22.5767 18.2394 22.5578 18.23C22.5342 18.2206 22.5129 18.2136 22.494 18.2089C22.4751 18.1995 22.4538 18.1901 22.4301 18.1807C22.4065 18.1759 22.3852 18.1689 22.3663 18.1595C22.3426 18.1548 22.3213 18.1477 22.3024 18.1383C22.2788 18.1336 22.2551 18.1266 22.2315 18.1172C22.2125 18.1125 22.1913 18.1078 22.1676 18.103C22.144 18.0983 22.1227 18.0936 22.1038 18.0889C22.0801 18.0795 22.0565 18.0725 22.0328 18.0678C22.0092 18.0631 21.9855 18.0607 21.9619 18.0607C21.943 18.056 21.9217 18.0513 21.898 18.0466C21.8744 18.0419 21.8507 18.0396 21.8271 18.0396C21.8034 18.0348 21.7798 18.0301 21.7561 18.0254C21.7325 18.0254 21.7088 18.0254 21.6852 18.0254C21.6615 18.0207 21.6379 18.0184 21.6142 18.0184C21.5906 18.0184 21.5669 18.0184 21.5433 18.0184C21.5196 18.0137 21.496 18.0113 21.4723 18.0113C21.4487 18.0113 21.425 18.0137 21.4014 18.0184C21.3778 18.0184 21.3541 18.0184 21.3305 18.0184C21.3068 18.0184 21.2832 18.0207 21.2595 18.0254C21.2359 18.0254 21.2122 18.0254 21.1886 18.0254C21.1649 18.0301 21.1413 18.0348 21.1176 18.0396C21.094 18.0396 21.0703 18.0419 21.0467 18.0466C21.023 18.0513 20.9994 18.056 20.9757 18.0607C20.9521 18.0607 20.9308 18.0631 20.9119 18.0678C20.8882 18.0725 20.8646 18.0795 20.8409 18.0889C20.8173 18.0936 20.796 18.0983 20.7771 18.103C20.7534 18.1078 20.7298 18.1125 20.7061 18.1172C20.6872 18.1266 20.6659 18.1336 20.6423 18.1383C20.6186 18.1477 20.5973 18.1548 20.5784 18.1595C20.5548 18.1689 20.5335 18.1759 20.5146 18.1807C20.4909 18.1901 20.4696 18.1995 20.4507 18.2089C20.4271 18.2136 20.4058 18.2206 20.3869 18.23C20.3632 18.2394 20.3419 18.2488 20.323 18.2583C20.3041 18.2677 20.2852 18.2771 20.2663 18.2865C20.2426 18.2959 20.2213 18.3053 20.2024 18.3147C20.1835 18.3288 20.1622 18.3406 20.1386 18.35C20.1196 18.3594 20.1007 18.3688 20.0818 18.3782C20.0629 18.3923 20.044 18.4041 20.025 18.4135C20.0061 18.4276 19.9872 18.4393 19.9683 18.4487C19.9494 18.4628 19.9305 18.477 19.9115 18.4911C19.8926 18.5005 19.8737 18.5122 19.8548 18.5263C19.8406 18.5404 19.824 18.5522 19.8051 18.5616C19.7862 18.5757 19.7673 18.5898 19.7484 18.6039C19.7294 18.6181 19.7129 18.6322 19.6987 18.6463C19.6798 18.6604 19.6632 18.6745 19.649 18.6886C19.6301 18.7027 19.6136 18.7192 19.5994 18.738C19.5805 18.7521 19.5639 18.7662 19.5497 18.7803C19.5308 18.7944 19.5142 18.8085 19.5001 18.8226C19.4859 18.8415 19.4693 18.8579 19.4504 18.872C19.4362 18.8908 19.422 18.9073 19.4078 18.9214C19.3936 18.9402 19.3794 18.9567 19.3653 18.9708C19.3511 18.9896 19.3369 19.0084 19.3227 19.0272C19.3085 19.0413 19.2943 19.0578 19.2801 19.0766C19.2659 19.0954 19.2517 19.1119 19.2375 19.126C19.2234 19.1448 19.2092 19.1636 19.195 19.1824C19.1855 19.2013 19.1737 19.2201 19.1595 19.2389C19.1453 19.2577 19.1335 19.2765 19.124 19.2953C19.1098 19.3141 19.098 19.3329 19.0886 19.3518C19.0744 19.3706 19.0626 19.3894 19.0531 19.4082C19.0436 19.427 19.0318 19.4458 19.0176 19.4646C19.0082 19.4834 18.9987 19.5046 18.9892 19.5281C18.9798 19.5469 18.9703 19.5658 18.9609 19.5846C18.9467 19.6034 18.9372 19.6245 18.9325 19.6481C18.923 19.6669 18.9136 19.6857 18.9041 19.7045C18.8946 19.728 18.8852 19.7492 18.8757 19.768C18.8663 19.7915 18.8592 19.8127 18.8544 19.8315C18.845 19.855 18.8355 19.8762 18.8261 19.895C18.8213 19.9185 18.8166 19.942 18.8119 19.9655C18.8024 19.9843 18.7953 20.0055 18.7906 20.029C18.7811 20.0525 18.774 20.0737 18.7693 20.0925C18.7646 20.116 18.7598 20.1396 18.7551 20.1631C18.7504 20.1819 18.7457 20.203 18.7409 20.2266C18.7362 20.2501 18.7315 20.2736 18.7267 20.2971C18.722 20.3206 18.7173 20.3441 18.7125 20.3677L18.7055 20.4312C18.7007 20.4547 18.6984 20.4782 18.6984 20.5017C18.6936 20.5252 18.6913 20.5487 18.6913 20.5723C18.6913 20.5958 18.6889 20.6193 18.6842 20.6428C18.6842 20.6663 18.6842 20.6898 18.6842 20.7133C18.6842 20.7369 18.6842 20.7604 18.6842 20.7839V30.8653L15.896 30.315V20.7839C15.896 19.5705 16.2862 18.4487 16.9531 17.5387C17.0737 17.3693 17.2085 17.2071 17.3504 17.0519C18.3649 15.9443 19.8406 15.2388 21.4723 15.2388C23.3311 15.2388 24.9771 16.1488 25.9916 17.5387C26.2967 17.9549 26.5379 18.4135 26.7223 18.9073C26.9281 19.4929 27.0487 20.1278 27.0487 20.7839Z" fill="white"/>
<path d="M38.2008 20.7838V34.7243L35.7673 34.2445L35.4126 34.174V20.6992V20.6568V20.6075V20.5651V20.5228L35.4055 20.4734V20.3888V20.3464V20.297L35.3984 20.2547V20.2124V20.17V20.1207L35.3913 20.0783V20.036V19.9937L35.3842 19.9443V19.902L35.3771 19.8596V19.8173L35.37 19.7256V19.6833L35.3629 19.6409V19.5986L35.3559 19.5563V19.5139L35.3488 19.4646V19.4222L35.3346 19.3376L35.3275 19.2529L35.3204 19.2106V19.1612L35.3133 19.1189L35.3062 19.0765L35.292 18.9919V18.9496L35.2849 18.9072L35.2778 18.8649L35.2707 18.8226L35.2636 18.7802L35.2565 18.7379V18.6956L35.2494 18.6462L35.2423 18.6039L35.2352 18.5615L35.2281 18.5192L35.2211 18.4769L35.214 18.4346L35.2069 18.3922L35.1998 18.3499L35.1927 18.3076L35.1785 18.2652L35.1714 18.2229L35.1643 18.1806L35.1572 18.1382L35.1501 18.0959L35.143 18.0536L35.1359 18.0113C35.1028 17.8513 35.065 17.6938 35.0224 17.5386C33.5538 11.4502 28.0413 6.921 21.4717 6.921C15.718 6.921 10.7802 10.392 8.6518 15.3375C8.34673 16.0429 8.09842 16.7767 7.91396 17.5386C7.87612 17.6938 7.84065 17.8513 7.80754 18.0113L7.80045 18.0536L7.79335 18.0959L7.78626 18.1382L7.77916 18.1806L7.76497 18.2229L7.75788 18.2652L7.75078 18.3076L7.74369 18.3499L7.73659 18.3922L7.7295 18.4346L7.72241 18.4769L7.71531 18.5192L7.70822 18.5615L7.70112 18.6039L7.69403 18.6462L7.68693 18.6956L7.67984 18.7379L7.67274 18.7802L7.66565 18.8226V18.8649L7.65146 18.9496L7.64436 18.9919L7.63727 19.0342V19.0765L7.63018 19.1189L7.62308 19.1612L7.61599 19.2106V19.2529L7.6018 19.3376V19.3799L7.5947 19.4222V19.4646L7.58761 19.5139V19.5563L7.58051 19.5986L7.57342 19.6409V19.6833V19.7256L7.56632 19.775V19.8173L7.55923 19.8596V19.902L7.55213 19.9443V19.9937V20.036L7.54504 20.0783V20.1207V20.17L7.53795 20.2124V20.2547V20.297V20.3464L7.53085 20.4734V20.5228V20.5651V20.6075V20.6568V20.6992V28.6571L4.74268 28.1068V20.7838C4.74268 19.8455 4.82072 18.9143 4.9697 18.0113C4.99808 17.8561 5.02882 17.6985 5.06193 17.5386C6.58018 9.90521 13.3484 4.14844 21.4717 4.14844C29.5879 4.14844 36.3633 9.90521 37.8815 17.5386C37.9146 17.6985 37.943 17.8561 37.9667 18.0113C38.1227 18.9143 38.2008 19.8455 38.2008 20.7838Z" fill="white"/>
<path d="M32.6252 20.699V33.6235L29.8371 33.0732V20.7836C29.8371 20.3533 29.8016 19.9229 29.7377 19.5067C29.6597 18.9917 29.532 18.4908 29.3617 18.0111C29.305 17.8511 29.2435 17.6936 29.1773 17.5384C27.9002 14.5612 24.9276 12.4659 21.4725 12.4659C18.4502 12.4659 15.7969 14.0674 14.3283 16.459C14.1154 16.8023 13.9286 17.1621 13.7678 17.5384C13.7016 17.6936 13.6401 17.8511 13.5833 18.0111C13.2712 18.8788 13.108 19.8171 13.108 20.7836V29.7645L10.3198 29.2071V20.699V20.6496V20.6072V20.5649V20.5155V20.4732L10.3269 20.4309V20.3815V20.3392V20.2968L10.334 20.2545V20.2051V20.1628L10.3411 20.1205V20.0781V20.0287L10.3482 19.9441L10.3553 19.8947V19.8524L10.3624 19.81V19.7677L10.3695 19.7254V19.676L10.3766 19.6337L10.3837 19.5913V19.549L10.3908 19.5067L10.3979 19.4573L10.405 19.415V19.3726L10.4121 19.3303L10.4191 19.288L10.4262 19.2457L10.4333 19.2033L10.4404 19.161L10.4475 19.1116V19.0693L10.4546 19.027L10.4617 18.9846L10.4688 18.9423L10.4759 18.9L10.4901 18.8576L10.4972 18.8153L10.5043 18.773L10.5114 18.7307L10.5185 18.6883L10.5256 18.646L10.5327 18.6037L10.5469 18.5613L10.5539 18.519L10.561 18.4767L10.5681 18.4343L10.5823 18.392L10.5894 18.3497L10.5965 18.3074L10.6107 18.265L10.6178 18.2227L10.632 18.1804L10.6391 18.138L10.6462 18.0957L10.6604 18.0534L10.6675 18.0111C10.71 17.8511 10.755 17.6936 10.8023 17.5384C10.9796 16.9669 11.1996 16.4167 11.4621 15.8875C13.2783 12.219 17.081 9.69336 21.4725 9.69336C26.4955 9.69336 30.7381 13.0021 32.1357 17.5384C32.183 17.6936 32.2279 17.8511 32.2705 18.0111L32.2847 18.0534L32.2918 18.0957L32.306 18.138L32.3131 18.1804L32.3273 18.2227L32.3343 18.265L32.3414 18.3074L32.3556 18.3497L32.3627 18.392L32.3698 18.4343L32.384 18.4767L32.3911 18.519L32.3982 18.5613L32.4053 18.6037L32.4195 18.646L32.4266 18.6883L32.4337 18.7307L32.4408 18.773L32.4479 18.8153L32.4621 18.9L32.4691 18.9423L32.4762 18.9846L32.4833 19.027L32.4904 19.0693L32.4975 19.1116L32.5046 19.161L32.5117 19.2033L32.5188 19.2457L32.5259 19.288V19.3303L32.533 19.3726L32.5401 19.415L32.5472 19.4573V19.5067L32.5543 19.549L32.5614 19.5913L32.5685 19.6337V19.676L32.5756 19.7254V19.7677L32.5827 19.8524L32.5898 19.8947V19.9441L32.5968 20.0287L32.6039 20.0711V20.0781V20.1205V20.1628L32.611 20.2051V20.2545V20.2968L32.6181 20.3392V20.3815V20.4309V20.4732V20.5155L32.6252 20.5649V20.6072V20.6496V20.699Z" fill="white"/>
<path d="M35.7673 34.0538L35.4126 33.9832L32.6244 33.4329L29.8363 32.8826L27.0481 32.3324L24.2599 31.7821V41.8564C24.2599 41.88 24.2599 41.9035 24.2599 41.927C24.2599 41.9505 24.2575 41.974 24.2528 41.9975C24.2528 42.0211 24.2528 42.0446 24.2528 42.0681C24.2481 42.0916 24.2457 42.1151 24.2457 42.1386C24.241 42.1622 24.2386 42.1857 24.2386 42.2092L24.2244 42.2797C24.2197 42.3032 24.2173 42.3268 24.2173 42.3503C24.2126 42.3738 24.2079 42.395 24.2031 42.4138C24.1984 42.4373 24.1937 42.4608 24.189 42.4843C24.1842 42.5078 24.1771 42.529 24.1677 42.5478C24.1677 42.569 24.1606 42.5972 24.1535 42.6184C24.1488 42.6372 24.1417 42.6583 24.1322 42.6819C24.1275 42.7054 24.1204 42.7265 24.1109 42.7454C24.1062 42.7689 24.0991 42.79 24.0896 42.8088C24.0802 42.8324 24.0731 42.8535 24.0683 42.8723C24.0589 42.8959 24.0494 42.917 24.04 42.9358C24.0305 42.9594 24.0211 42.9805 24.0116 42.9993C24.0021 43.0181 23.9927 43.0393 23.9832 43.0628C23.9738 43.0816 23.9643 43.1005 23.9548 43.1193C23.9454 43.1381 23.9336 43.1592 23.9194 43.1828C23.9099 43.2016 23.9004 43.2204 23.891 43.2392C23.8768 43.258 23.865 43.2768 23.8555 43.2956C23.8413 43.3144 23.8295 43.3333 23.82 43.3521C23.8058 43.3709 23.794 43.3897 23.7846 43.4085C23.7704 43.4273 23.7562 43.4461 23.742 43.4649C23.7325 43.4838 23.7207 43.5002 23.7065 43.5143C23.6923 43.5331 23.6781 43.552 23.664 43.5708C23.6498 43.5849 23.6356 43.6013 23.6214 43.6202C23.6072 43.639 23.593 43.6554 23.5788 43.6695C23.5646 43.6884 23.5504 43.7048 23.5363 43.7189C23.5221 43.7377 23.5055 43.7542 23.4866 43.7683C23.4724 43.7871 23.4582 43.8036 23.444 43.8177C23.4251 43.8318 23.4086 43.8483 23.3944 43.8671C23.3802 43.8812 23.3636 43.8953 23.3447 43.9094C23.3305 43.9235 23.314 43.9376 23.295 43.9517C23.2761 43.9658 23.2596 43.98 23.2454 43.9941C23.2265 44.0082 23.2099 44.0223 23.1957 44.0364C23.1768 44.0505 23.1579 44.0646 23.139 44.0787C23.12 44.0928 23.1011 44.1069 23.0822 44.1211C23.068 44.1305 23.0515 44.1422 23.0325 44.1563C23.0136 44.1704 22.9947 44.1822 22.9758 44.1916C22.9569 44.2057 22.9379 44.2175 22.919 44.2269C22.9001 44.241 22.8812 44.2527 22.8623 44.2622C22.8386 44.2716 22.8173 44.2833 22.7984 44.2974C22.7795 44.3068 22.7606 44.3162 22.7417 44.3256C22.7227 44.3351 22.7015 44.3445 22.6778 44.3539C22.6589 44.3633 22.64 44.375 22.6211 44.3891C22.5974 44.3938 22.5761 44.4009 22.5572 44.4103C22.5336 44.4197 22.5123 44.4291 22.4934 44.4385C22.4744 44.4479 22.4531 44.455 22.4295 44.4597C22.4058 44.4691 22.3846 44.4785 22.3656 44.4879C22.342 44.4926 22.3207 44.4997 22.3018 44.5091C22.2781 44.5138 22.2545 44.5185 22.2309 44.5232C22.2119 44.5326 22.1906 44.5396 22.167 44.5443C22.1434 44.5491 22.1221 44.5538 22.1031 44.5585C22.0795 44.5632 22.0559 44.5679 22.0322 44.5726C22.0086 44.5773 21.9849 44.582 21.9613 44.5867C21.9423 44.5914 21.9211 44.5961 21.8974 44.6008C21.8738 44.6008 21.8501 44.6031 21.8265 44.6078C21.8028 44.6125 21.7792 44.6149 21.7555 44.6149C21.7319 44.6196 21.7082 44.622 21.6846 44.622C21.6609 44.622 21.6373 44.6243 21.6136 44.629C21.59 44.629 21.5663 44.629 21.5427 44.629C21.519 44.629 21.4954 44.629 21.4717 44.629C21.4481 44.629 21.4244 44.629 21.4008 44.629C21.3771 44.629 21.3535 44.629 21.3298 44.629C21.3062 44.6243 21.2825 44.622 21.2589 44.622C21.2352 44.622 21.2116 44.6196 21.1879 44.6149C21.1643 44.6149 21.1406 44.6125 21.117 44.6078C21.0933 44.6031 21.0697 44.6008 21.0461 44.6008C21.0224 44.5961 20.9988 44.5914 20.9751 44.5867C20.9515 44.582 20.9302 44.5773 20.9113 44.5726C20.8876 44.5679 20.864 44.5632 20.8403 44.5585C20.8167 44.5538 20.7954 44.5491 20.7765 44.5443C20.7528 44.5396 20.7292 44.5326 20.7055 44.5232C20.6866 44.5185 20.6653 44.5138 20.6417 44.5091C20.618 44.4997 20.5967 44.4926 20.5778 44.4879C20.5542 44.4785 20.5329 44.4691 20.514 44.4597C20.4903 44.455 20.469 44.4479 20.4501 44.4385C20.4265 44.4291 20.4052 44.4197 20.3863 44.4103C20.3626 44.4009 20.3413 44.3938 20.3224 44.3891C20.3035 44.375 20.2846 44.3633 20.2656 44.3539C20.242 44.3445 20.2207 44.3351 20.2018 44.3256C20.1829 44.3162 20.1616 44.3068 20.1379 44.2974C20.119 44.2833 20.1001 44.2716 20.0812 44.2622C20.0623 44.2527 20.0434 44.241 20.0244 44.2269C20.0055 44.2175 19.9866 44.2057 19.9677 44.1916C19.9488 44.1822 19.9298 44.1704 19.9109 44.1563C19.892 44.1422 19.8731 44.1305 19.8542 44.1211C19.84 44.1069 19.8234 44.0928 19.8045 44.0787C19.7856 44.0646 19.7667 44.0505 19.7477 44.0364C19.7288 44.0223 19.7123 44.0082 19.6981 43.9941C19.6792 43.98 19.6626 43.9658 19.6484 43.9517C19.6295 43.9376 19.6129 43.9235 19.5988 43.9094C19.5798 43.8953 19.5633 43.8812 19.5491 43.8671C19.5302 43.8483 19.5136 43.8318 19.4994 43.8177C19.4852 43.8036 19.4687 43.7871 19.4498 43.7683C19.4356 43.7542 19.4214 43.7377 19.4072 43.7189C19.393 43.7048 19.3788 43.6884 19.3646 43.6695C19.3504 43.6554 19.3363 43.639 19.3221 43.6202C19.3079 43.6013 19.2937 43.5849 19.2795 43.5708C19.2653 43.552 19.2511 43.5331 19.2369 43.5143C19.2227 43.5002 19.2086 43.4838 19.1944 43.4649C19.1849 43.4461 19.1731 43.4273 19.1589 43.4085C19.1447 43.3897 19.1329 43.3709 19.1234 43.3521C19.1092 43.3333 19.0974 43.3144 19.0879 43.2956C19.0738 43.2768 19.0619 43.258 19.0525 43.2392C19.043 43.2204 19.0312 43.2016 19.017 43.1828C19.0075 43.1592 18.9981 43.1381 18.9886 43.1193C18.9792 43.1005 18.9697 43.0816 18.9602 43.0628C18.9461 43.0393 18.9366 43.0181 18.9319 42.9993C18.9224 42.9805 18.9129 42.9594 18.9035 42.9358C18.894 42.917 18.8846 42.8959 18.8751 42.8723C18.8656 42.8535 18.8586 42.8324 18.8538 42.8088C18.8444 42.79 18.8349 42.7689 18.8254 42.7454C18.8207 42.7265 18.816 42.7054 18.8113 42.6819C18.8018 42.6583 18.7947 42.6372 18.79 42.6184C18.7805 42.5948 18.7734 42.5713 18.7687 42.5478C18.764 42.529 18.7592 42.5078 18.7545 42.4843C18.7498 42.4608 18.745 42.4373 18.7403 42.4138C18.7356 42.395 18.7309 42.3738 18.7261 42.3503C18.7214 42.3268 18.7167 42.3032 18.7119 42.2797C18.7119 42.2562 18.7096 42.2327 18.7048 42.2092C18.7001 42.1857 18.6977 42.1622 18.6977 42.1386C18.693 42.1151 18.6906 42.0916 18.6906 42.0681C18.6906 42.0446 18.6883 42.0211 18.6836 41.9975C18.6836 41.974 18.6836 41.9505 18.6836 41.927C18.6836 41.9035 18.6836 41.88 18.6836 41.8564V30.6745L15.8954 30.1242L13.1072 29.5739L10.319 29.0236L7.53085 28.4663L4.74268 27.916V41.8564C4.74268 42.8018 4.82072 43.726 4.9697 44.629C6.30349 52.4952 13.1852 58.4918 21.4717 58.4918C29.7582 58.4918 36.64 52.4952 37.9667 44.629C38.1227 43.726 38.2008 42.8018 38.2008 41.8564V34.5335L35.7673 34.0538Z" fill="#2B8F1C"/>
<path d="M54.085 43.991V18.4775H57.788V43.991H54.085Z" fill="white"/>
<path d="M76.5385 43.991V34.5829C76.5385 33.8388 76.4736 33.0769 76.3436 32.2973C76.2255 31.5059 75.9893 30.7736 75.6349 30.1003C75.2924 29.4271 74.8022 28.8837 74.1644 28.4703C73.5383 28.0569 72.7174 27.8502 71.7016 27.8502C71.0401 27.8502 70.4141 27.9624 69.8235 28.1868C69.2329 28.3994 68.7132 28.7479 68.2644 29.2322C67.8273 29.7165 67.4789 30.3543 67.219 31.1457C66.971 31.9371 66.847 32.8997 66.847 34.0337L64.5437 33.1655C64.5437 31.4292 64.8685 29.8995 65.5181 28.5766C66.1678 27.2419 67.1009 26.2024 68.3175 25.4583C69.5341 24.7142 71.0047 24.3421 72.7292 24.3421C74.0521 24.3421 75.1625 24.5547 76.0601 24.9799C76.9578 25.4052 77.6843 25.9662 78.2394 26.6631C78.8064 27.3482 79.2375 28.0982 79.5328 28.9133C79.8281 29.7283 80.0289 30.5256 80.1352 31.3051C80.2415 32.0847 80.2947 32.7698 80.2947 33.3604V43.991H76.5385ZM63.0908 43.991V24.8559H66.404V30.3838H66.847V43.991H63.0908Z" fill="white"/>
<path d="M92.227 44.5048C89.9001 44.5048 88.0043 43.991 86.5396 42.9634C85.0749 41.9358 84.1772 40.4888 83.8465 38.6225L87.6381 38.0379C87.8743 39.0301 88.4177 39.8155 89.2681 40.3943C90.1304 40.9613 91.1994 41.2448 92.475 41.2448C93.6326 41.2448 94.5362 41.0085 95.1858 40.5361C95.8473 40.0636 96.178 39.4139 96.178 38.5871C96.178 38.1028 96.0599 37.713 95.8237 37.4177C95.5992 37.1106 95.1209 36.8212 94.3885 36.5496C93.6562 36.2779 92.54 35.9413 91.0399 35.5397C89.3981 35.1144 88.0928 34.6597 87.1243 34.1754C86.1675 33.6793 85.4824 33.1064 85.069 32.4568C84.6674 31.7953 84.4666 30.998 84.4666 30.0649C84.4666 28.9073 84.7737 27.8974 85.388 27.0352C86.0022 26.1729 86.8644 25.5056 87.9747 25.0331C89.0969 24.5606 90.408 24.3244 91.9081 24.3244C93.3727 24.3244 94.6779 24.5547 95.8237 25.0154C96.9694 25.476 97.8966 26.1316 98.6053 26.982C99.3141 27.8207 99.7393 28.8069 99.881 29.9409L96.0894 30.6319C95.9595 29.7106 95.5284 28.9841 94.796 28.4526C94.0637 27.9211 93.1129 27.6317 91.9435 27.5844C90.8214 27.5372 89.9119 27.7262 89.215 28.1514C88.5181 28.5648 88.1696 29.1377 88.1696 29.87C88.1696 30.2952 88.2996 30.6555 88.5594 30.9508C88.8311 31.2461 89.3508 31.5296 90.1186 31.8012C90.8863 32.0729 92.0203 32.3977 93.5204 32.7757C95.1268 33.1891 96.4024 33.6498 97.3474 34.1577C98.2923 34.6538 98.9656 35.2503 99.3672 35.9472C99.7806 36.6323 99.9873 37.465 99.9873 38.4454C99.9873 40.3353 99.2963 41.8176 97.9144 42.8925C96.5442 43.9674 94.6484 44.5048 92.227 44.5048Z" fill="white"/>
<path d="M111.119 44.5048C109.796 44.5048 108.686 44.2922 107.788 43.867C106.89 43.4418 106.158 42.8866 105.591 42.2015C105.036 41.5046 104.61 40.7487 104.315 39.9337C104.02 39.1186 103.819 38.3213 103.713 37.5418C103.606 36.7622 103.553 36.0771 103.553 35.4865V24.8559H107.309V34.264C107.309 35.0081 107.368 35.7759 107.487 36.5673C107.617 37.3469 107.853 38.0733 108.195 38.7466C108.55 39.4198 109.04 39.9632 109.666 40.3766C110.304 40.79 111.131 40.9967 112.146 40.9967C112.808 40.9967 113.434 40.8904 114.024 40.6778C114.615 40.4534 115.129 40.099 115.566 39.6147C116.015 39.1305 116.363 38.4926 116.611 37.7012C116.871 36.9098 117.001 35.9472 117.001 34.8132L119.304 35.6814C119.304 37.4177 118.979 38.9533 118.33 40.288C117.68 41.6109 116.747 42.6445 115.53 43.3886C114.314 44.1327 112.843 44.5048 111.119 44.5048ZM117.444 43.991V38.4631H117.001V24.8559H120.739V43.991H117.444Z" fill="white"/>
<path d="M126.078 43.9908V24.8557H129.373V29.4978L128.912 28.8954C129.149 28.2812 129.456 27.7201 129.834 27.2122C130.212 26.6925 130.649 26.2673 131.145 25.9365C131.629 25.5822 132.167 25.3105 132.757 25.1215C133.36 24.9207 133.974 24.8026 134.6 24.7672C135.226 24.7199 135.828 24.7494 136.407 24.8557V28.3284C135.781 28.163 135.084 28.1158 134.316 28.1867C133.56 28.2575 132.864 28.4997 132.226 28.9131C131.623 29.3029 131.145 29.7754 130.791 30.3305C130.448 30.8857 130.2 31.5058 130.046 32.1909C129.893 32.8641 129.816 33.5788 129.816 34.3347V43.9908H126.078Z" fill="white"/>
<path d="M144.631 44.5224C143.214 44.5224 142.027 44.2625 141.07 43.7428C140.113 43.2113 139.387 42.5144 138.891 41.6521C138.407 40.778 138.164 39.8213 138.164 38.7818C138.164 37.8133 138.336 36.9628 138.678 36.2305C139.021 35.4982 139.529 34.8781 140.202 34.3701C140.875 33.8504 141.702 33.4311 142.682 33.1122C143.533 32.8641 144.496 32.6456 145.57 32.4566C146.645 32.2676 147.773 32.0905 148.954 31.9251C150.147 31.7597 151.329 31.5944 152.498 31.429L151.151 32.1732C151.175 30.6731 150.856 29.5627 150.195 28.8422C149.545 28.1099 148.423 27.7437 146.828 27.7437C145.824 27.7437 144.903 27.98 144.064 28.4524C143.226 28.9131 142.641 29.6809 142.31 30.7557L138.855 29.6927C139.328 28.0508 140.226 26.7456 141.548 25.7771C142.883 24.8085 144.655 24.3242 146.864 24.3242C148.577 24.3242 150.065 24.6195 151.329 25.2101C152.604 25.7889 153.537 26.7102 154.128 27.9741C154.435 28.6001 154.624 29.2615 154.695 29.9584C154.766 30.6553 154.801 31.4054 154.801 32.2086V43.9908H151.524V39.6146L152.161 40.1815C151.37 41.6462 150.36 42.7388 149.132 43.4593C147.915 44.168 146.415 44.5224 144.631 44.5224ZM145.287 41.4927C146.338 41.4927 147.242 41.3096 147.998 40.9434C148.754 40.5654 149.362 40.0871 149.823 39.5083C150.283 38.9295 150.585 38.3271 150.726 37.7011C150.927 37.1341 151.039 36.4963 151.063 35.7876C151.098 35.0789 151.116 34.5119 151.116 34.0867L152.321 34.5296C151.151 34.7068 150.088 34.8662 149.132 35.008C148.175 35.1497 147.307 35.2915 146.527 35.4332C145.759 35.5631 145.074 35.7226 144.472 35.9116C143.964 36.0888 143.509 36.3014 143.108 36.5494C142.718 36.7975 142.405 37.0987 142.169 37.453C141.944 37.8074 141.832 38.2385 141.832 38.7464C141.832 39.2425 141.956 39.7032 142.204 40.1284C142.452 40.5418 142.83 40.8725 143.338 41.1206C143.846 41.3686 144.496 41.4927 145.287 41.4927Z" fill="white"/>
<path d="M172.832 43.9908V34.5828C172.832 33.8386 172.767 33.0768 172.637 32.2972C172.519 31.5058 172.283 30.7735 171.928 30.1002C171.586 29.4269 171.096 28.8836 170.458 28.4702C169.832 28.0567 169.011 27.85 167.995 27.85C167.334 27.85 166.708 27.9622 166.117 28.1867C165.527 28.3993 165.007 28.7477 164.558 29.232C164.121 29.7163 163.772 30.3541 163.513 31.1455C163.265 31.9369 163.141 32.8996 163.141 34.0335L160.837 33.1653C160.837 31.429 161.162 29.8994 161.812 28.5765C162.461 27.2417 163.394 26.2023 164.611 25.4582C165.828 24.714 167.298 24.3419 169.023 24.3419C170.346 24.3419 171.456 24.5545 172.354 24.9798C173.251 25.405 173.978 25.9661 174.533 26.663C175.1 27.348 175.531 28.0981 175.826 28.9131C176.122 29.7281 176.322 30.5254 176.429 31.305C176.535 32.0846 176.588 32.7696 176.588 33.3602V43.9908H172.832ZM159.384 43.9908V24.8557H162.698V30.3837H163.141V43.9908H159.384Z" fill="white"/>
<path d="M189.146 44.5224C187.186 44.5224 185.52 44.0853 184.15 43.2113C182.78 42.3372 181.729 41.1383 180.996 39.6146C180.276 38.0909 179.91 36.3604 179.898 34.4233C179.91 32.4507 180.288 30.7085 181.032 29.1966C181.776 27.6729 182.839 26.4799 184.221 25.6176C185.603 24.7553 187.263 24.3242 189.2 24.3242C191.29 24.3242 193.074 24.8439 194.55 25.8834C196.039 26.9228 197.019 28.3461 197.492 30.1533L193.806 31.2164C193.44 30.1415 192.838 29.3088 191.999 28.7182C191.172 28.1158 190.221 27.8146 189.146 27.8146C187.93 27.8146 186.932 28.104 186.152 28.6828C185.373 29.2497 184.794 30.0293 184.416 31.0215C184.038 32.0137 183.843 33.1476 183.831 34.4233C183.843 36.3959 184.292 37.9905 185.178 39.2071C186.075 40.4237 187.398 41.032 189.146 41.032C190.339 41.032 191.302 40.7603 192.034 40.217C192.779 39.6618 193.346 38.8704 193.735 37.8428L197.492 38.7287C196.865 40.595 195.832 42.0301 194.391 43.0341C192.95 44.0263 191.202 44.5224 189.146 44.5224Z" fill="white"/>
<path d="M209.069 44.5224C207.167 44.5224 205.496 44.109 204.055 43.2821C202.625 42.4435 201.509 41.28 200.706 39.7918C199.914 38.2917 199.519 36.5553 199.519 34.5828C199.519 32.4921 199.909 30.679 200.688 29.1434C201.48 27.6079 202.578 26.4208 203.984 25.5822C205.389 24.7435 207.025 24.3242 208.891 24.3242C210.84 24.3242 212.5 24.779 213.87 25.6885C215.24 26.5862 216.262 27.8678 216.935 29.5332C217.62 31.1987 217.892 33.1772 217.75 35.4686H214.047V34.1221C214.024 31.9015 213.598 30.2596 212.772 29.1966C211.957 28.1335 210.71 27.602 209.033 27.602C207.179 27.602 205.785 28.1867 204.852 29.356C203.919 30.5254 203.452 32.2145 203.452 34.4233C203.452 36.5258 203.919 38.1558 204.852 39.3134C205.785 40.4591 207.132 41.032 208.891 41.032C210.049 41.032 211.047 40.7721 211.886 40.2524C212.736 39.7209 213.398 38.9649 213.87 37.9846L217.502 39.1362C216.758 40.8489 215.63 42.1777 214.118 43.1227C212.606 44.0558 210.923 44.5224 209.069 44.5224ZM202.247 35.4686V32.5807H215.908V35.4686H202.247Z" fill="white"/>
</svg>
